<svg width="139" height="17" viewBox="0 0 139 17" fill="none" xmlns="http://www.w3.org/2000/svg">
<path d="M9.24373 10.454C9.24373 11.198 9.03373 11.846 8.61373 12.398C8.20573 12.95 7.65973 13.382 6.97573 13.694C6.30373 13.994 5.56573 14.144 4.76173 14.144C3.90973 14.144 3.15373 13.976 2.49373 13.64C1.83373 13.292 1.31173 12.836 0.927727 12.272C0.555727 11.708 0.369727 11.078 0.369727 10.382C0.369727 9.842 0.495727 9.356 0.747727 8.924C1.01173 8.48 1.33573 8.108 1.71973 7.808C2.11573 7.508 2.51773 7.292 2.92573 7.16C2.55373 7.004 2.20573 6.8 1.88173 6.548C1.55773 6.284 1.29973 5.978 1.10773 5.63C0.915727 5.282 0.819727 4.898 0.819727 4.478C0.819727 3.95 0.933727 3.488 1.16173 3.092C1.40173 2.684 1.71373 2.342 2.09773 2.066C2.48173 1.778 2.90773 1.568 3.37573 1.436C3.85573 1.292 4.33573 1.22 4.81573 1.22C5.28373 1.22 5.75173 1.292 6.21973 1.436C6.69973 1.568 7.13173 1.772 7.51573 2.048C7.91173 2.324 8.22373 2.666 8.45173 3.074C8.69173 3.47 8.81173 3.932 8.81173 4.46C8.81173 4.88 8.70973 5.27 8.50573 5.63C8.31373 5.978 8.05573 6.284 7.73173 6.548C7.40773 6.8 7.05373 7.004 6.66973 7.16C7.13773 7.316 7.56373 7.556 7.94773 7.88C8.34373 8.192 8.65573 8.564 8.88373 8.996C9.12373 9.428 9.24373 9.914 9.24373 10.454ZM8.00173 10.364C8.00173 9.932 7.90573 9.554 7.71373 9.23C7.53373 8.894 7.28173 8.612 6.95773 8.384C6.64573 8.156 6.29773 7.982 5.91373 7.862C5.54173 7.742 5.16373 7.682 4.77973 7.682C4.26373 7.682 3.75973 7.796 3.26773 8.024C2.78773 8.24 2.39173 8.552 2.07973 8.96C1.77973 9.356 1.62973 9.83 1.62973 10.382C1.62973 10.802 1.71973 11.174 1.89973 11.498C2.09173 11.822 2.34373 12.104 2.65573 12.344C2.96773 12.572 3.30973 12.746 3.68173 12.866C4.06573 12.986 4.44973 13.046 4.83373 13.046C5.34973 13.046 5.84773 12.938 6.32773 12.722C6.81973 12.494 7.22173 12.176 7.53373 11.768C7.84573 11.36 8.00173 10.892 8.00173 10.364ZM2.04373 4.532C2.04373 4.988 2.18173 5.384 2.45773 5.72C2.74573 6.044 3.10573 6.29 3.53773 6.458C3.96973 6.626 4.38973 6.71 4.79773 6.71C5.22973 6.71 5.65573 6.626 6.07573 6.458C6.50773 6.278 6.86173 6.026 7.13773 5.702C7.42573 5.366 7.56973 4.964 7.56973 4.496C7.56973 4.04 7.43773 3.65 7.17373 3.326C6.90973 3.002 6.56173 2.756 6.12973 2.588C5.70973 2.42 5.25973 2.336 4.77973 2.336C4.32373 2.336 3.87973 2.426 3.44773 2.606C3.02773 2.774 2.68573 3.026 2.42173 3.362C2.16973 3.686 2.04373 4.076 2.04373 4.532ZM15.5195 7.772C15.5195 6.548 15.7655 5.36 16.2575 4.208C16.7495 3.044 17.3435 1.874 18.0395 0.698L18.9755 1.148C18.7355 1.508 18.4775 1.952 18.2015 2.48C17.9375 3.008 17.6855 3.578 17.4455 4.19C17.2175 4.79 17.0315 5.402 16.8875 6.026C16.7435 6.65 16.6715 7.25 16.6715 7.826C16.6715 8.762 16.8755 9.782 17.2835 10.886C17.6915 11.99 18.2495 13.088 18.9575 14.18L18.0395 14.666C17.5355 13.91 17.0915 13.148 16.7075 12.38C16.3355 11.612 16.0415 10.844 15.8255 10.076C15.6215 9.296 15.5195 8.528 15.5195 7.772ZM29.3355 10.454C29.3355 11.198 29.1255 11.846 28.7055 12.398C28.2975 12.95 27.7515 13.382 27.0675 13.694C26.3955 13.994 25.6575 14.144 24.8535 14.144C24.0015 14.144 23.2455 13.976 22.5855 13.64C21.9255 13.292 21.4035 12.836 21.0195 12.272C20.6475 11.708 20.4615 11.078 20.4615 10.382C20.4615 9.842 20.5875 9.356 20.8395 8.924C21.1035 8.48 21.4275 8.108 21.8115 7.808C22.2075 7.508 22.6095 7.292 23.0175 7.16C22.6455 7.004 22.2975 6.8 21.9735 6.548C21.6495 6.284 21.3915 5.978 21.1995 5.63C21.0075 5.282 20.9115 4.898 20.9115 4.478C20.9115 3.95 21.0255 3.488 21.2535 3.092C21.4935 2.684 21.8055 2.342 22.1895 2.066C22.5735 1.778 22.9995 1.568 23.4675 1.436C23.9475 1.292 24.4275 1.22 24.9075 1.22C25.3755 1.22 25.8435 1.292 26.3115 1.436C26.7915 1.568 27.2235 1.772 27.6075 2.048C28.0035 2.324 28.3155 2.666 28.5435 3.074C28.7835 3.47 28.9035 3.932 28.9035 4.46C28.9035 4.88 28.8015 5.27 28.5975 5.63C28.4055 5.978 28.1475 6.284 27.8235 6.548C27.4995 6.8 27.1455 7.004 26.7615 7.16C27.2295 7.316 27.6555 7.556 28.0395 7.88C28.4355 8.192 28.7475 8.564 28.9755 8.996C29.2155 9.428 29.3355 9.914 29.3355 10.454ZM28.0935 10.364C28.0935 9.932 27.9975 9.554 27.8055 9.23C27.6255 8.894 27.3735 8.612 27.0495 8.384C26.7375 8.156 26.3895 7.982 26.0055 7.862C25.6335 7.742 25.2555 7.682 24.8715 7.682C24.3555 7.682 23.8515 7.796 23.3595 8.024C22.8795 8.24 22.4835 8.552 22.1715 8.96C21.8715 9.356 21.7215 9.83 21.7215 10.382C21.7215 10.802 21.8115 11.174 21.9915 11.498C22.1835 11.822 22.4355 12.104 22.7475 12.344C23.0595 12.572 23.4015 12.746 23.7735 12.866C24.1575 12.986 24.5415 13.046 24.9255 13.046C25.4415 13.046 25.9395 12.938 26.4195 12.722C26.9115 12.494 27.3135 12.176 27.6255 11.768C27.9375 11.36 28.0935 10.892 28.0935 10.364ZM22.1355 4.532C22.1355 4.988 22.2735 5.384 22.5495 5.72C22.8375 6.044 23.1975 6.29 23.6295 6.458C24.0615 6.626 24.4815 6.71 24.8895 6.71C25.3215 6.71 25.7475 6.626 26.1675 6.458C26.5995 6.278 26.9535 6.026 27.2295 5.702C27.5175 5.366 27.6615 4.964 27.6615 4.496C27.6615 4.04 27.5295 3.65 27.2655 3.326C27.0015 3.002 26.6535 2.756 26.2215 2.588C25.8015 2.42 25.3515 2.336 24.8715 2.336C24.4155 2.336 23.9715 2.426 23.5395 2.606C23.1195 2.774 22.7775 3.026 22.5135 3.362C22.2615 3.686 22.1355 4.076 22.1355 4.532ZM37.5394 12.884V14H31.4374V12.884H33.9934V5.18C33.8974 5.324 33.7354 5.48 33.5074 5.648C33.2794 5.816 33.0154 5.972 32.7154 6.116C32.4274 6.26 32.1394 6.38 31.8514 6.476C31.5634 6.572 31.2994 6.62 31.0594 6.62V5.432C31.3354 5.432 31.6354 5.354 31.9594 5.198C32.2834 5.042 32.5954 4.862 32.8954 4.658C33.1954 4.454 33.4474 4.262 33.6514 4.082C33.8554 3.902 33.9694 3.782 33.9934 3.722H35.2534V12.884H37.5394ZM38.7227 14C38.7227 13.592 38.7587 13.184 38.8307 12.776C38.9027 12.356 39.0407 11.942 39.2447 11.534C39.4487 11.126 39.7487 10.736 40.1447 10.364C40.5407 9.98 41.0627 9.62 41.7107 9.284C42.0587 9.104 42.4187 8.93 42.7907 8.762C43.1627 8.582 43.5107 8.39 43.8347 8.186C44.1707 7.97 44.4347 7.73 44.6267 7.466C44.8307 7.19 44.9327 6.866 44.9327 6.494C44.9327 6.194 44.8427 5.9 44.6627 5.612C44.4947 5.324 44.2307 5.09 43.8707 4.91C43.5227 4.73 43.0847 4.64 42.5567 4.64C42.1727 4.64 41.8247 4.694 41.5127 4.802C41.2007 4.91 40.9247 5.048 40.6847 5.216C40.4447 5.372 40.2407 5.534 40.0727 5.702C39.9047 5.858 39.7667 5.99 39.6587 6.098L38.8847 5.252C38.9447 5.18 39.0767 5.054 39.2807 4.874C39.4967 4.682 39.7667 4.484 40.0907 4.28C40.4267 4.076 40.8167 3.902 41.2607 3.758C41.7167 3.614 42.2147 3.542 42.7547 3.542C43.4867 3.542 44.1107 3.674 44.6267 3.938C45.1547 4.19 45.5567 4.532 45.8327 4.964C46.1087 5.396 46.2467 5.864 46.2467 6.368C46.2467 6.86 46.1387 7.286 45.9227 7.646C45.7187 7.994 45.4487 8.3 45.1127 8.564C44.7887 8.816 44.4467 9.038 44.0867 9.23C43.7387 9.41 43.4207 9.566 43.1327 9.698C42.5687 9.962 42.0947 10.226 41.7107 10.49C41.3267 10.754 41.0207 11.024 40.7927 11.3C40.5647 11.564 40.3847 11.828 40.2527 12.092C40.1327 12.344 40.0487 12.608 40.0007 12.884H46.4447V14H38.7227ZM51.3494 7.772C51.3494 8.528 51.2474 9.296 51.0434 10.076C50.8394 10.844 50.5454 11.612 50.1614 12.38C49.7774 13.148 49.3334 13.91 48.8294 14.666L47.9294 14.18C48.6374 13.088 49.1954 11.99 49.6034 10.886C50.0114 9.782 50.2154 8.762 50.2154 7.826C50.2154 7.25 50.1434 6.65 49.9994 6.026C49.8554 5.402 49.6634 4.79 49.4234 4.19C49.1834 3.578 48.9314 3.008 48.6674 2.48C48.4034 1.952 48.1454 1.508 47.8934 1.148L48.8474 0.698C49.5434 1.874 50.1314 3.044 50.6114 4.208C51.1034 5.36 51.3494 6.548 51.3494 7.772ZM64.0297 12.884V14H57.9277V12.884H60.4837V5.18C60.3877 5.324 60.2257 5.48 59.9977 5.648C59.7697 5.816 59.5057 5.972 59.2057 6.116C58.9177 6.26 58.6297 6.38 58.3417 6.476C58.0537 6.572 57.7897 6.62 57.5497 6.62V5.432C57.8257 5.432 58.1257 5.354 58.4497 5.198C58.7737 5.042 59.0857 4.862 59.3857 4.658C59.6857 4.454 59.9377 4.262 60.1417 4.082C60.3457 3.902 60.4597 3.782 60.4837 3.722H61.7437V12.884H64.0297ZM65.2129 14C65.2129 13.592 65.2489 13.184 65.3209 12.776C65.3929 12.356 65.5309 11.942 65.7349 11.534C65.9389 11.126 66.2389 10.736 66.6349 10.364C67.0309 9.98 67.5529 9.62 68.2009 9.284C68.5489 9.104 68.9089 8.93 69.2809 8.762C69.6529 8.582 70.0009 8.39 70.3249 8.186C70.6609 7.97 70.9249 7.73 71.1169 7.466C71.3209 7.19 71.4229 6.866 71.4229 6.494C71.4229 6.194 71.3329 5.9 71.1529 5.612C70.9849 5.324 70.7209 5.09 70.3609 4.91C70.0129 4.73 69.5749 4.64 69.0469 4.64C68.6629 4.64 68.3149 4.694 68.0029 4.802C67.6909 4.91 67.4149 5.048 67.1749 5.216C66.9349 5.372 66.7309 5.534 66.5629 5.702C66.3949 5.858 66.2569 5.99 66.1489 6.098L65.3749 5.252C65.4349 5.18 65.5669 5.054 65.7709 4.874C65.9869 4.682 66.2569 4.484 66.5809 4.28C66.9169 4.076 67.3069 3.902 67.7509 3.758C68.2069 3.614 68.7049 3.542 69.2449 3.542C69.9769 3.542 70.6009 3.674 71.1169 3.938C71.6449 4.19 72.0469 4.532 72.3229 4.964C72.5989 5.396 72.7369 5.864 72.7369 6.368C72.7369 6.86 72.6289 7.286 72.4129 7.646C72.2089 7.994 71.9389 8.3 71.6029 8.564C71.2789 8.816 70.9369 9.038 70.5769 9.23C70.2289 9.41 69.9109 9.566 69.6229 9.698C69.0589 9.962 68.5849 10.226 68.2009 10.49C67.8169 10.754 67.5109 11.024 67.2829 11.3C67.0549 11.564 66.8749 11.828 66.7429 12.092C66.6229 12.344 66.5389 12.608 66.4909 12.884H72.9349V14H65.2129ZM79.9816 9.752C80.5216 9.836 80.9836 10.028 81.3676 10.328C81.7516 10.628 82.0516 11.006 82.2676 11.462C82.4836 11.918 82.5916 12.434 82.5916 13.01C82.5916 13.73 82.4176 14.366 82.0696 14.918C81.7216 15.47 81.2356 15.896 80.6116 16.196C79.9876 16.496 79.2616 16.646 78.4336 16.646C77.5216 16.646 76.7236 16.46 76.0396 16.088C75.3556 15.728 74.8396 15.224 74.4916 14.576L75.3376 13.802C75.6016 14.318 75.9916 14.732 76.5076 15.044C77.0236 15.368 77.6656 15.53 78.4336 15.53C79.3216 15.53 80.0236 15.308 80.5396 14.864C81.0676 14.432 81.3316 13.808 81.3316 12.992C81.3316 12.176 81.0556 11.528 80.5036 11.048C79.9636 10.556 79.1896 10.31 78.1816 10.31H77.7316V9.266H78.2176C79.1416 9.266 79.8496 9.05 80.3416 8.618C80.8336 8.186 81.0796 7.634 81.0796 6.962C81.0796 6.47 80.9656 6.062 80.7376 5.738C80.5096 5.414 80.1976 5.168 79.8016 5C79.4176 4.832 78.9736 4.748 78.4696 4.748C77.7856 4.748 77.1796 4.904 76.6516 5.216C76.1356 5.516 75.7456 5.936 75.4816 6.476L74.6896 5.72C74.8936 5.3 75.1876 4.934 75.5716 4.622C75.9556 4.31 76.4056 4.07 76.9216 3.902C77.4376 3.722 77.9896 3.632 78.5776 3.632C79.3216 3.632 79.9756 3.77 80.5396 4.046C81.1036 4.31 81.5476 4.682 81.8716 5.162C82.1956 5.642 82.3576 6.206 82.3576 6.854C82.3576 7.334 82.2616 7.778 82.0696 8.186C81.8776 8.594 81.6016 8.936 81.2416 9.212C80.8936 9.488 80.4736 9.668 79.9816 9.752ZM84.5929 9.662V8.528H89.8489V9.662H84.5929ZM97.3016 16.286V13.082H91.3076V12.002L97.6976 3.722H98.5256V11.966H100.11V13.082H98.5256V16.286H97.3016ZM92.6036 11.966H97.4276V5.648L92.6036 11.966ZM105.436 16.682C104.536 16.682 103.72 16.454 102.988 15.998C102.256 15.554 101.71 14.966 101.35 14.234L102.16 13.622C102.496 14.21 102.952 14.684 103.528 15.044C104.116 15.404 104.758 15.584 105.454 15.584C106.054 15.584 106.588 15.452 107.056 15.188C107.536 14.924 107.914 14.558 108.19 14.09C108.478 13.622 108.622 13.082 108.622 12.47C108.622 11.882 108.484 11.366 108.208 10.922C107.944 10.466 107.578 10.112 107.11 9.86C106.654 9.608 106.138 9.482 105.562 9.482C105.01 9.482 104.482 9.608 103.978 9.86C103.474 10.1 103.066 10.454 102.754 10.922H101.62L103.042 3.722H109.216V4.856H103.96L103.078 9.446C103.39 9.11 103.774 8.852 104.23 8.672C104.686 8.48 105.178 8.384 105.706 8.384C106.486 8.384 107.188 8.558 107.812 8.906C108.448 9.254 108.952 9.734 109.324 10.346C109.696 10.958 109.882 11.66 109.882 12.452C109.882 13.292 109.678 14.03 109.27 14.666C108.874 15.302 108.34 15.794 107.668 16.142C106.996 16.502 106.252 16.682 105.436 16.682ZM111.628 9.662V8.528H116.884V9.662H111.628ZM128.114 9.788C128.114 10.592 127.91 11.33 127.502 12.002C127.106 12.662 126.566 13.19 125.882 13.586C125.198 13.982 124.43 14.18 123.578 14.18C122.69 14.18 121.898 13.97 121.202 13.55C120.518 13.118 119.978 12.5 119.582 11.696C119.186 10.892 118.988 9.938 118.988 8.834C118.988 7.094 119.186 5.66 119.582 4.532C119.978 3.392 120.53 2.54 121.238 1.976C121.946 1.412 122.768 1.13 123.704 1.13C124.556 1.13 125.318 1.346 125.99 1.778C126.662 2.198 127.172 2.774 127.52 3.506L126.728 4.226C126.476 3.614 126.074 3.128 125.522 2.768C124.982 2.396 124.376 2.21 123.704 2.21C122.996 2.21 122.378 2.432 121.85 2.876C121.322 3.32 120.908 3.956 120.608 4.784C120.32 5.612 120.176 6.614 120.176 7.79C120.356 7.322 120.62 6.914 120.968 6.566C121.316 6.218 121.724 5.948 122.192 5.756C122.672 5.564 123.182 5.468 123.722 5.468C124.538 5.468 125.276 5.66 125.936 6.044C126.608 6.428 127.136 6.95 127.52 7.61C127.916 8.258 128.114 8.984 128.114 9.788ZM123.614 13.1C124.214 13.1 124.766 12.95 125.27 12.65C125.774 12.35 126.176 11.948 126.476 11.444C126.788 10.94 126.944 10.388 126.944 9.788C126.944 9.188 126.788 8.636 126.476 8.132C126.176 7.628 125.774 7.226 125.27 6.926C124.766 6.626 124.214 6.476 123.614 6.476C123.002 6.476 122.438 6.626 121.922 6.926C121.418 7.226 121.016 7.628 120.716 8.132C120.416 8.624 120.266 9.176 120.266 9.788C120.266 10.388 120.416 10.94 120.716 11.444C121.028 11.948 121.436 12.35 121.94 12.65C122.444 12.95 123.002 13.1 123.614 13.1ZM136.403 4.64H129.509V3.506H138.347L131.885 16.286H130.481L136.403 4.64Z" fill="white"/>
</svg>
